# xmcd CD database file
#
# Track frame offsets:
#	150
#	22869
#	39747
#	53835
#
# Disc length: 938 seconds
#
# Revision: 2
# Processed by: cddbd v1.5.2PL0 Copyright (c) Steve Scherf et al.
# Submitted via: CDex 1.51
#
DISCID=2803a804
DTITLE=Heartbeat Parade - Burning Nantucket!
DYEAR=2012
DGENRE=Country
TTITLE0=Burning water
TTITLE1=A road towards starvation
TTITLE2=Leaving Nantucket
TTITLE3=It catches on fire! (Burning water remix pt. 2)
EXTD=YEAR: 2012
EXTT0=
EXTT1=
EXTT2=
EXTT3=
PLAYORDER=
